<?xml version="1.0" encoding="UTF-8"?>
<!-- Generator: visioncortex VTracer -->
<svg id="svg" version="1.1" xmlns="http://www.w3.org/2000/svg" style="display: block; background: transparent;" viewBox="0 0 2048 2048"><path d="M0 0 C1.14186768 -0.01780518 2.28373535 -0.03561035 3.46020508 -0.05395508 C11.74656166 -0.04609154 19.32202406 0.65041684 26.25 5.5 C28.37396323 8.68594485 28.71377908 10.51594222 28.7890625 14.25 C27.35140865 18.71518371 23.66395929 20.99815937 19.76953125 23.26953125 C18.4977572 23.89939408 17.2200227 24.5173225 15.9375 25.125 C14.88755859 25.63691895 14.88755859 25.63691895 13.81640625 26.15917969 C8.80385485 28.57880224 3.72414889 30.83291495 -1.375 33.0625 C-33.79413283 47.2912133 -62.75038477 65.37774222 -88.875 89.3125 C-89.92645736 90.25980984 -90.97856771 91.20639528 -92.03125 92.15234375 C-93.10434398 93.12219969 -94.17726333 94.09224887 -95.25 95.0625 C-96.22710938 95.94421875 -97.20421875 96.8259375 -98.2109375 97.734375 C-100.69067365 100.13411966 -102.74111684 102.60901456 -104.875 105.3125 C-106.52718045 106.99352805 -108.19417162 108.66011641 -109.875 110.3125 C-116.92079069 117.70697316 -123.30681172 125.4749716 -129.52246094 133.56591797 C-130.82400111 135.2466433 -132.14605275 136.90856487 -133.4765625 138.56640625 C-139.21473725 145.7669933 -144.0851166 153.24610446 -148.67138672 161.22460938 C-149.95679354 163.45438607 -151.26035186 165.67288433 -152.56640625 167.890625 C-156.61653974 174.79567776 -160.60294298 181.7011434 -164.23876953 188.8347168 C-169.2509246 198.65047204 -175.23405915 207.52571909 -181.875 216.3125 C-182.79732422 217.54613281 -182.79732422 217.54613281 -183.73828125 218.8046875 C-192.4109814 229.52182069 -204.26418406 236.30157976 -216.875 241.3125 C-217.77476562 241.6734375 -218.67453125 242.034375 -219.6015625 242.40625 C-233.4316126 247.0305392 -248.8229909 245.28519638 -261.875 239.3125 C-278.06301917 231.06142684 -287.40115566 216.87491379 -296.1875 201.5625 C-303.084922 189.74118434 -310.29180075 178.70877362 -319.66796875 168.67578125 C-321.16074187 167.07732508 -322.62131197 165.44827878 -324.05078125 163.79296875 C-329.47093123 157.52561949 -335.34341236 152.39165736 -341.875 147.3125 C-342.87402344 146.4978125 -343.87304688 145.683125 -344.90234375 144.84375 C-366.23544134 127.60586014 -392.52303718 117.16628703 -419.0625 111.0625 C-419.7136377 110.91127686 -420.36477539 110.76005371 -421.03564453 110.60424805 C-434.86981243 107.62439991 -448.59520339 106.96761242 -462.6875 107.0625 C-463.94365616 107.06765121 -463.94365616 107.06765121 -465.22518921 107.07290649 C-477.2042868 107.13048388 -489.04140612 107.28082125 -500.875 109.3125 C-501.7829834 109.46315918 -502.6909668 109.61381836 -503.62646484 109.76904297 C-533.47816823 114.86257243 -561.96050911 124.76578295 -589.8215332 136.43139648 C-591.12030396 136.97389038 -591.12030396 136.97389038 -592.4453125 137.52734375 C-593.20602051 137.84823975 -593.96672852 138.16913574 -594.75048828 138.49975586 C-600.65514388 140.75861572 -607.92841681 141.92120248 -613.92578125 139.4765625 C-617.12112185 137.20398136 -617.86506196 135.36670751 -618.5625 131.5625 C-617.70222342 121.39211907 -609.68140474 114.4268433 -602.40625 108.19921875 C-599.59007218 105.86758917 -596.73570294 103.58923516 -593.875 101.3125 C-592.82464668 100.44897886 -591.77519037 99.58436565 -590.7265625 98.71875 C-573.98869309 85.04217166 -555.23894976 74.78403263 -535.875 65.3125 C-535.07723145 64.92078613 -534.27946289 64.52907227 -533.45751953 64.12548828 C-510.92623157 53.29669068 -484.65385321 46.25755884 -459.875 43.3125 C-459.18946045 43.22956696 -458.5039209 43.14663391 -457.79760742 43.06118774 C-444.88634838 41.53178171 -432.12151984 40.94430339 -419.125 41 C-418.21090363 41.00215515 -417.29680725 41.0043103 -416.35501099 41.00653076 C-402.02374241 41.06053622 -387.97873967 41.55078865 -373.875 44.3125 C-372.8840332 44.50585938 -371.89306641 44.69921875 -370.87207031 44.8984375 C-340.34939252 51.10059969 -310.65728068 62.71727292 -284.875 80.3125 C-284.26333984 80.72886719 -283.65167969 81.14523437 -283.02148438 81.57421875 C-274.02912642 87.74637574 -265.60846926 94.50185441 -257.25390625 101.51171875 C-249.65494508 107.76900641 -242.35470756 112.73084506 -232.15625 112.59765625 C-221.78492732 111.30124092 -214.16354307 104.7718177 -207.14453125 97.58984375 C-204.60622081 95.04279558 -201.94554951 92.71097008 -199.21484375 90.375 C-197.35801837 88.73826577 -195.55035663 87.07639157 -193.75390625 85.375 C-185.80516979 77.84878023 -177.6259239 70.88749298 -168.875 64.3125 C-167.93624023 63.60432129 -167.93624023 63.60432129 -166.97851562 62.88183594 C-159.15195908 56.99806972 -151.22049066 51.44352115 -142.875 46.3125 C-141.988125 45.73628906 -141.10125 45.16007813 -140.1875 44.56640625 C-106.44139857 22.98146637 -69.15327178 9.43127309 -29.875 2.3125 C-29.16005371 2.17972656 -28.44510742 2.04695312 -27.70849609 1.91015625 C-18.51184976 0.2678156 -9.31932982 0.09328721 0 0 Z " transform="translate(1051.875,893.6875)" style="fill: #C5A059;"/><path d="M0 0 C0.74499756 -0.01261871 1.48999512 -0.02523743 2.25756836 -0.03823853 C20.12346124 -0.28156547 36.88413018 0.36154105 54.19921875 5.2734375 C55.21258301 5.55751465 56.22594727 5.8415918 57.27001953 6.13427734 C82.86465079 13.5231202 104.11506851 25.83840801 123.19921875 44.2734375 C124.13636719 45.14742187 125.07351563 46.02140625 126.0390625 46.921875 C155.02945663 74.65181721 168.31961396 115.85200558 169.55322266 155.1875 C169.81054303 181.51795659 163.58914497 208.06448346 151.19921875 231.2734375 C150.31169922 233.03107422 150.31169922 233.03107422 149.40625 234.82421875 C127.28710792 276.46857367 85.39272871 299.93752615 44.05078125 318.6015625 C31.42512251 324.31930494 19.99107882 330.51908061 9.19921875 339.2734375 C8.61011719 339.71042969 8.02101563 340.14742187 7.4140625 340.59765625 C2.47731998 344.34958056 -1.14884265 349.32612188 -4.80078125 354.2734375 C-5.35121094 355.00046875 -5.90164063 355.7275 -6.46875 356.4765625 C-18.47990912 374.1382155 -18.12015142 398.75165306 -15.30078125 418.9609375 C-12.35725189 440.30498837 -12.35725189 440.30498837 -15.86328125 445.0859375 C-19.65174207 446.61744294 -22.08350524 446.84696404 -25.80078125 445.2734375 C-39.15587511 436.90158762 -46.4961101 424.2050144 -52.80078125 410.2734375 C-53.54521484 408.65501953 -53.54521484 408.65501953 -54.3046875 407.00390625 C-64.55808193 383.65065267 -64.968735 355.06578147 -56.11328125 331.1484375 C-55.06881163 328.49557656 -53.95536698 325.88010958 -52.80078125 323.2734375 C-52.35774658 322.27183594 -52.35774658 322.27183594 -51.90576172 321.25 C-47.30827501 311.07559381 -41.65441072 302.0726134 -34.80078125 293.2734375 C-34.1665625 292.45359375 -33.53234375 291.63375 -32.87890625 290.7890625 C-27.14720444 283.88162699 -20.02550835 278.52567143 -12.80078125 273.2734375 C-11.85928223 272.58499756 -10.9177832 271.89655762 -9.94775391 271.18725586 C-2.71340647 266.02559679 4.64256854 261.71467289 12.60354614 257.75543213 C15.7869487 256.16949455 18.95154117 254.54679688 22.1171875 252.92578125 C22.73548935 252.60971924 23.3537912 252.29365723 23.99082947 251.96801758 C36.13746126 245.73622749 47.58530442 238.89036351 58.19921875 230.2734375 C58.99714844 229.62890625 59.79507813 228.984375 60.6171875 228.3203125 C77.62500157 213.91782623 88.50364721 193.39494609 91.19921875 171.2734375 C93.03276639 147.21868374 87.80760686 123.51155416 71.89453125 104.73388672 C56.89027219 87.8276047 36.68814648 77.9371107 14.17871094 76.109375 C-10.2283226 74.69242095 -34.4449916 83.31709748 -52.80078125 99.2734375 C-53.6103125 99.93859375 -54.41984375 100.60375 -55.25390625 101.2890625 C-81.3587233 123.4535298 -94.88281576 160.19318705 -108.88208008 190.65136719 C-112.96037753 199.51436033 -117.16265719 208.31063904 -121.42578125 217.0859375 C-121.74547882 217.74409454 -122.06517639 218.40225159 -122.39456177 219.08035278 C-123.65607561 221.67697111 -124.91772077 224.27352543 -126.17988586 226.86982727 C-128.89126684 232.45073601 -131.56918272 238.04721787 -134.23828125 243.6484375 C-140.66469479 257.12014014 -147.19231244 270.54272409 -153.71142578 283.96972656 C-157.11822363 290.9866539 -160.52225241 298.00492408 -163.92578125 305.0234375 C-164.42543396 306.05368042 -164.42543396 306.05368042 -164.93518066 307.10473633 C-170.11465688 317.78509124 -175.27993904 328.47220306 -180.43310547 339.1652832 C-183.63991083 345.8147018 -186.86224764 352.45619835 -190.1015625 359.08984375 C-196.73952483 372.6908957 -203.3568359 386.28187852 -209.54345703 400.09619141 C-212.18510492 405.97960192 -214.98095755 411.76226566 -217.90454102 417.51025391 C-220.30593236 422.24024877 -222.570568 427.02314382 -224.80078125 431.8359375 C-227.30309104 437.22768845 -229.94659886 442.49731624 -232.80078125 447.7109375 C-236.14786001 453.83798744 -239.01408078 460.10841847 -241.80078125 466.50708008 C-244.56296726 472.82112979 -247.57067262 478.97967231 -250.69287109 485.12207031 C-256.62819257 496.80169635 -262.40772723 508.5518212 -268.0975647 520.35275269 C-277.45483392 539.73337848 -287.11628253 558.69814724 -298.41943359 577.03271484 C-299.27842555 578.42610971 -300.1336277 579.82185737 -300.98291016 581.22119141 C-309.75740299 595.66935721 -320.30438348 608.90643874 -331.80078125 621.2734375 C-333.15682245 622.83431093 -334.51100758 624.39679891 -335.86328125 625.9609375 C-339.56323843 630.11884616 -343.53038008 633.71476986 -347.80078125 637.2734375 C-348.63867188 637.99917969 -349.4765625 638.72492187 -350.33984375 639.47265625 C-365.3613553 652.32163514 -381.43711926 662.86115526 -398.80078125 672.2734375 C-399.75065918 672.80275879 -399.75065918 672.80275879 -400.71972656 673.34277344 C-420.23931004 684.20923102 -451.21199905 696.82345391 -473.734375 691.109375 C-476.40253371 690.03000645 -478.37984449 688.63913222 -480.01171875 686.23828125 C-481.72520525 681.9715302 -482.07143635 677.67452472 -480.80078125 673.2734375 C-476.52270911 666.98707523 -470.69779642 662.65878838 -464.55078125 658.3359375 C-462.85147559 657.10999593 -461.15354941 655.88213991 -459.45703125 654.65234375 C-458.64878906 654.06855957 -457.84054687 653.48477539 -457.0078125 652.88330078 C-427.43318548 631.31083501 -405.32885126 602.46432223 -386.80078125 571.2734375 C-385.97223633 569.89140137 -385.97223633 569.89140137 -385.12695312 568.48144531 C-376.681028 554.37816587 -368.91946025 540.08912244 -361.80078125 525.2734375 C-361.1346582 523.89188477 -361.1346582 523.89188477 -360.45507812 522.48242188 C-357.68112024 516.72296687 -354.92881089 510.9533751 -352.18359375 505.18017578 C-344.03006282 488.04106221 -335.73617482 470.97222588 -327.40484619 453.91906738 C-322.23542636 443.33661383 -317.08767907 432.74579566 -312.03100586 422.10888672 C-307.10089973 411.76165645 -302.05663122 401.46985434 -297.02996826 391.16931152 C-292.43986091 381.76193188 -287.85747071 372.35213998 -283.36328125 362.8984375 C-277.83777483 351.27808287 -272.17552714 339.72464414 -266.52716064 328.16369629 C-261.1068378 317.06822252 -255.71157969 305.96257345 -250.38696289 294.82080078 C-245.3264116 284.24869694 -240.17788607 273.71957188 -235.03820801 263.18579102 C-230.32338643 253.52152947 -225.62188339 243.85198615 -220.98828125 234.1484375 C-214.36146046 220.27349354 -207.57648222 206.47538624 -200.8034668 192.67138672 C-196.05901806 182.9934483 -191.35576392 173.29940006 -186.76899719 163.54556274 C-184.00923882 157.68048596 -181.15218161 151.87026629 -178.21875 146.08984375 C-176.54784708 142.77948159 -174.90615599 139.45562343 -173.27565002 136.12518311 C-156.21328562 101.28540201 -135.98249186 68.39983671 -105.80078125 43.2734375 C-105.3001416 42.84836914 -104.79950195 42.42330078 -104.28369141 41.98535156 C-77.83964047 19.61729223 -47.80947206 7.07176609 -13.80078125 1.2734375 C-12.42756714 1.01191895 -12.42756714 1.01191895 -11.02661133 0.74511719 C-7.34391966 0.20663537 -3.71409274 0.05720328 0 0 Z " transform="translate(1366.80078125,654.7265625)" style="fill: #C5A059;"/></svg>