<svg version="1.2" xmlns="http://www.w3.org/2000/svg" viewBox="433.3125 654.6450776398584 1103.0485244764673 692.6123830021978" width="1104" height="694">
	<style>
		.s0 { fill: #c5a059 } 
	</style>
	<g id="Layer 1">
		<path class="s0" d="m1051.88 893.69q1.7-0.03 3.46-0.06c8.28 0.01 15.86 0.71 22.78 5.56 2.13 3.18 2.47 5.01 2.54 8.75-1.43 4.46-5.12 6.75-9.02 9.02q-1.9 0.94-3.83 1.85c-1.05 0.51-1.05 0.51-2.12 1.04-5.01 2.42-10.09 4.67-15.19 6.9-32.42 14.23-61.38 32.32-87.5 56.25q-1.58 1.42-3.16 2.84-1.61 1.45-3.22 2.91-1.45 1.32-2.96 2.67c-2.48 2.4-4.53 4.88-6.66 7.58q-2.48 2.52-5 5c-7.05 7.39-13.43 15.16-19.65 23.25q-1.95 2.52-3.95 5c-5.74 7.2-10.61 14.68-15.2 22.66q-1.93 3.34-3.89 6.67c-4.05 6.9-8.04 13.81-11.67 20.94-5.02 9.82-11 18.69-17.64 27.48-0.92 1.23-0.92 1.23-1.86 2.49-8.68 10.72-20.53 17.5-33.14 22.51q-1.34 0.54-2.73 1.09c-13.83 4.63-29.22 2.88-42.27-3.09-16.19-8.25-25.53-22.44-34.31-37.75-6.9-11.82-14.11-22.85-23.48-32.89q-2.24-2.4-4.39-4.88c-5.42-6.27-11.29-11.4-17.82-16.48q-1.49-1.22-3.03-2.47c-21.33-17.24-47.62-27.68-74.16-33.78q-0.97-0.23-1.97-0.46c-13.83-2.98-27.56-3.63-41.65-3.54-1.26 0.01-1.26 0.01-2.54 0.01-11.98 0.06-23.82 0.21-35.65 2.24q-1.36 0.22-2.75 0.46c-29.85 5.09-58.34 14.99-86.2 26.66-1.3 0.54-1.3 0.54-2.62 1.09q-1.14 0.48-2.31 0.98c-5.9 2.26-13.17 3.42-19.17 0.97-3.2-2.27-3.94-4.11-4.64-7.91 0.86-10.17 8.88-17.14 16.16-23.36q4.23-3.49 8.53-6.89 1.58-1.3 3.15-2.59c16.74-13.68 35.49-23.94 54.85-33.41q1.19-0.58 2.42-1.19c22.53-10.83 48.8-17.86 73.58-20.81q1.02-0.12 2.08-0.25c12.91-1.53 25.67-2.12 38.67-2.06q1.36 0 2.77 0c14.33 0.06 28.38 0.55 42.48 3.31q1.48 0.29 3 0.59c30.53 6.2 60.22 17.81 86 35.41q0.91 0.62 1.85 1.26c9 6.17 17.42 12.93 25.77 19.94 7.6 6.26 14.9 11.22 25.1 11.09 10.37-1.3 17.99-7.83 25.01-15.01 2.54-2.55 5.2-4.88 7.93-7.22q2.78-2.45 5.46-5c7.95-7.52 16.13-14.49 24.88-21.06 0.94-0.71 0.94-0.71 1.9-1.43 7.82-5.88 15.75-11.44 24.1-16.57q1.32-0.86 2.69-1.75c33.74-21.58 71.03-35.13 110.31-42.25q1.07-0.2 2.17-0.4c9.19-1.64 18.39-1.82 27.7-1.91z"/>
		<path class="s0" d="m1366.8 654.73q1.11-0.02 2.26-0.04c17.86-0.25 34.62 0.4 51.94 5.31q1.51 0.42 3.07 0.86c25.6 7.39 46.85 19.7 65.93 38.14q1.4 1.3 2.84 2.65c28.99 27.73 42.28 68.93 43.51 108.26 0.26 26.33-5.96 52.88-18.35 76.09-0.89 1.76-0.89 1.76-1.79 3.55-22.12 41.65-64.02 65.11-105.36 83.78-12.62 5.72-24.06 11.92-34.85 20.67q-0.88 0.65-1.79 1.32c-4.93 3.76-8.56 8.73-12.21 13.68q-0.82 1.09-1.67 2.2c-12.01 17.66-11.65 42.28-8.83 62.49 2.94 21.34 2.94 21.34-0.56 26.12-3.79 1.53-6.22 1.76-9.94 0.19-13.36-8.37-20.7-21.07-27-35-0.74-1.62-0.74-1.62-1.5-3.27-10.26-23.35-10.67-51.94-1.81-75.86q1.57-3.97 3.31-7.87c0.44-1 0.44-1 0.9-2.02 4.59-10.18 10.25-19.18 17.1-27.98q0.95-1.22 1.92-2.48c5.73-6.91 12.86-12.27 20.08-17.52q1.41-1.03 2.85-2.09c7.24-5.16 14.59-9.47 22.55-13.43q4.77-2.39 9.52-4.83 0.92-0.47 1.87-0.96c12.15-6.23 23.6-13.07 34.21-21.69q1.19-0.96 2.42-1.95c17.01-14.41 27.88-34.93 30.58-57.05 1.83-24.05-3.39-47.76-19.3-66.54-15.01-16.91-35.21-26.8-57.72-28.62-24.41-1.42-48.62 7.2-66.98 23.16q-1.21 0.99-2.45 2.02c-26.11 22.16-39.63 58.9-53.63 89.36-4.08 8.86-8.28 17.66-12.54 26.43q-0.48 0.98-0.97 2-1.9 3.89-3.79 7.79-4.06 8.37-8.06 16.77c-6.42 13.48-12.95 26.9-19.47 40.33q-5.11 10.52-10.21 21.05c-0.5 1.03-0.5 1.03-1.01 2.08q-7.77 16.02-15.5 32.06-4.81 9.98-9.67 19.93c-6.64 13.6-13.26 27.19-19.44 41-2.64 5.89-5.44 11.67-8.36 17.42-2.41 4.73-4.67 9.51-6.9 14.32-2.5 5.39-5.15 10.66-8 15.88-3.35 6.12-6.21 12.39-9 18.79-2.76 6.32-5.77 12.48-8.89 18.62-5.94 11.68-11.72 23.43-17.41 35.23-9.35 19.38-19.02 38.34-30.32 56.68q-1.29 2.09-2.56 4.19c-8.78 14.45-19.32 27.68-30.82 40.05q-2.03 2.34-4.06 4.69c-3.7 4.16-7.67 7.75-11.94 11.31q-1.25 1.08-2.54 2.2c-15.02 12.85-31.1 23.39-48.46 32.8-0.95 0.53-0.95 0.53-1.92 1.07-19.52 10.87-50.49 23.48-73.01 17.77-2.67-1.08-4.65-2.47-6.28-4.88-1.71-4.26-2.06-8.56-0.79-12.96 4.28-6.29 10.1-10.61 16.25-14.94q2.55-1.84 5.09-3.68 1.21-0.87 2.45-1.77c29.58-21.57 51.68-50.42 70.21-81.61 0.83-1.38 0.83-1.38 1.67-2.79 8.45-14.11 16.21-28.39 23.33-43.21 0.67-1.38 0.67-1.38 1.35-2.79q4.15-8.64 8.27-17.3c8.15-17.14 16.44-34.21 24.78-51.26 5.17-10.59 10.31-21.18 15.37-31.81 4.93-10.35 9.97-20.64 15-30.94 4.59-9.41 9.17-18.82 13.67-28.28 5.52-11.62 11.19-23.17 16.83-34.73q8.15-16.64 16.14-33.34c5.06-10.57 10.21-21.1 15.35-31.64q7.09-14.49 14.05-29.04c6.63-13.87 13.41-27.67 20.19-41.47 4.74-9.68 9.45-19.37 14.03-29.13q4.15-8.79 8.55-17.45 2.5-4.97 4.95-9.97c17.06-34.84 37.29-67.72 67.47-92.85q0.75-0.63 1.52-1.29c26.44-22.37 56.47-34.91 90.48-40.71 1.37-0.26 1.37-0.26 2.77-0.53 3.69-0.54 7.32-0.69 11.03-0.74z"/>
	</g>
</svg>